<svg width="71" height="82" viewBox="0 0 71 82" fill="none" xmlns="http://www.w3.org/2000/svg">
<path d="M21.3475 81.848H0.8675V0.823997H21.3475V34.744C21.5182 34.744 21.6462 34.744 21.7315 34.744C22.5848 34.744 23.5662 34.0613 24.6755 32.696C25.8702 31.3307 26.9368 29.9653 27.8755 28.6L45.0275 0.823997H67.2995V1.20799L52.7075 24.76C51.4275 26.8933 49.9768 29.1973 48.3555 31.672C46.7342 34.0613 45.1128 36.1947 43.4915 38.072C41.9555 39.864 40.5902 40.9733 39.3955 41.4V41.784C40.5902 42.296 41.9555 43.4053 43.4915 45.112C45.1128 46.7333 46.7342 48.6533 48.3555 50.872C50.0622 53.0053 51.6835 55.1387 53.2195 57.272L70.2435 81.464V81.848H46.6915L30.6915 57.272V57.4C30.1795 56.5467 29.3688 55.4373 28.2595 54.072C27.2355 52.6213 26.1262 51.2987 24.9315 50.104C23.8222 48.9093 22.8408 48.312 21.9875 48.312C21.8168 48.312 21.6888 48.312 21.6035 48.312C21.5182 48.312 21.4328 48.312 21.3475 48.312V81.848Z" fill="#5E53A7"/>
</svg>
