<svg xmlns="http://www.w3.org/2000/svg" xmlns:xlink="http://www.w3.org/1999/xlink" viewBox="0,0,255.98959,255.98959" width="48px" height="48px"><g fill="#ffffff" fill-rule="nonzero" stroke="none" stroke-width="1" stroke-linecap="butt" stroke-linejoin="miter" stroke-miterlimit="10" stroke-dasharray="" stroke-dashoffset="0" font-family="none" font-weight="none" font-size="none" text-anchor="none" style="mix-blend-mode: normal"><g transform="scale(10.66667,10.66667)"><path d="M18,2h-12c-1.105,0 -2,0.895 -2,2v16c0,1.105 0.895,2 2,2h12c1.105,0 2,-0.895 2,-2v-16c0,-1.105 -0.895,-2 -2,-2zM12,6c1.7,0 3,1.3 3,3c0,1.7 -1.3,3 -3,3c-1.7,0 -3,-1.3 -3,-3c0,-1.7 1.3,-3 3,-3zM16.333,18h-8.666c-0.369,0 -0.667,-0.298 -0.667,-0.667v-0.333c0,-1.571 2.512,-3 5,-3c2.488,0 5,1.429 5,3v0.333c0,0.369 -0.298,0.667 -0.667,0.667z"></path></g></g></svg>