<svg xmlns="http://www.w3.org/2000/svg" xmlns:xlink="http://www.w3.org/1999/xlink" viewBox="0,0,255.98959,255.98959" width="48px" height="48px"><g fill="#ffffff" fill-rule="nonzero" stroke="none" stroke-width="1" stroke-linecap="butt" stroke-linejoin="miter" stroke-miterlimit="10" stroke-dasharray="" stroke-dashoffset="0" font-family="none" font-weight="none" font-size="none" text-anchor="none" style="mix-blend-mode: normal"><g transform="scale(10.66667,10.66667)"><path d="M10,3c-0.26757,-0.00363 -0.52543,0.10012 -0.71593,0.28805c-0.1905,0.18793 -0.29774,0.44436 -0.29774,0.71195h-4.98633c-1.105,0 -2,0.895 -2,2v6c0,1.103 0.897,2 2,2h16c1.103,0 2,-0.897 2,-2v-6c0,-1.105 -0.895,-2 -2,-2h-4.98633c0,-0.26759 -0.10724,-0.52403 -0.29774,-0.71195c-0.1905,-0.18793 -0.44836,-0.29168 -0.71593,-0.28805zM12,10c0.552,0 1,0.448 1,1c0,0.552 -0.448,1 -1,1c-0.552,0 -1,-0.448 -1,-1c0,-0.552 0.448,-1 1,-1zM2,15.44336v2.55664c0,1.105 0.895,2 2,2h16c1.105,0 2,-0.895 2,-2v-2.55664c-0.591,0.344 -1.268,0.55664 -2,0.55664h-16c-0.732,0 -1.409,-0.21264 -2,-0.55664z"></path></g></g></svg>