<svg xmlns="http://www.w3.org/2000/svg" xmlns:xlink="http://www.w3.org/1999/xlink" viewBox="0,0,255.98959,255.98959" width="48px" height="48px"><g fill="#ffffff" fill-rule="nonzero" stroke="none" stroke-width="1" stroke-linecap="butt" stroke-linejoin="miter" stroke-miterlimit="10" stroke-dasharray="" stroke-dashoffset="0" font-family="none" font-weight="none" font-size="none" text-anchor="none" style="mix-blend-mode: normal"><g transform="scale(10.66667,10.66667)"><path d="M20.869,7.795c0,0 -0.369,-1.795 -0.869,-1.795c-0.375,0 -1.871,1.684 -2.599,2.528c-0.26,0.302 -0.635,0.472 -1.033,0.472c-0.756,0 -1.368,-0.612 -1.368,-1.368c0,-0.398 0.17,-0.773 0.472,-1.033c0.844,-0.728 2.528,-2.224 2.528,-2.599c0,-0.5 -1.799,-0.878 -1.799,-0.878c-0.392,-0.081 -0.797,-0.122 -1.201,-0.122c-3.309,0 -6,2.717 -6,6.056c0,0.42 0.051,0.845 0.153,1.285l-6.214,6.103c-1.252,1.269 -1.252,3.332 0.001,4.601c0.61,0.615 1.423,0.955 2.291,0.955c0.867,0 1.681,-0.34 2.28,-0.946l6.229,-6.12c0.429,0.066 0.847,0.066 1.26,0.066c3.364,0 6,-2.611 6,-5.944c0,-0.422 -0.044,-0.847 -0.131,-1.261z"></path></g></g></svg>